<?xml version="1.0" standalone="no"?>
<!DOCTYPE svg PUBLIC "-//W3C//DTD SVG 20010904//EN"
 "http://www.w3.org/TR/2001/REC-SVG-20010904/DTD/svg10.dtd">
<svg version="1.0" xmlns="http://www.w3.org/2000/svg"
 width="96.000000pt" height="96.000000pt" viewBox="0 0 96.000000 96.000000"
 preserveAspectRatio="xMidYMid meet">
<metadata>
Created by potrace 1.14, written by Peter Selinger 2001-2017
</metadata>
<g transform="translate(0.000000,96.000000) scale(0.100000,-0.100000)"
fill="#000000" stroke="none">
<path d="M460 873 c-8 -2 -24 -9 -35 -14 -11 -4 -74 -28 -140 -53 l-120 -44
-3 -143 c-1 -79 2 -167 8 -196 17 -78 72 -181 127 -235 48 -47 151 -108 182
-108 67 0 210 115 258 207 53 100 62 145 60 318 l-2 157 -120 44 c-66 25 -129
49 -140 54 -31 14 -58 19 -75 13z m80 -263 l0 -50 50 0 50 0 0 -60 0 -60 -50
0 -50 0 0 -50 0 -50 -60 0 -60 0 0 50 0 50 -50 0 -50 0 0 60 0 60 50 0 50 0 0
50 0 50 60 0 60 0 0 -50z"/>
</g>
</svg>
